PathFileType	4	(X/Y/Z)	Patient4_TMGait_0pt8_01_left_03.trc.trc
DataRate	CameraRate	NumFrames	NumMarkers	Units	OrigDataRate	OrigDataStartFrame	OrigNumFrames
88.607594936709	88.607594936709	5	33	mm	88.607594936709	18	       141
Frame#	Time	Sacral			L.Shoulder			Chest			R.Shoulder			Neck			R.ASIS			L.ASIS			R.Thigh.Superior			R.Thigh.Lateral			R.Thigh.Inferior			R.Patella			L.Thigh.Superior			L.Thigh.Lateral			L.Thigh.Inferior			L.Patella			L.Shank.Superior			L.Shank.Lateral			L.Shank.Inferior			R.Shank.Superior			R.Shank.Lateral			R.Shank.Inferior			R.Heel			R.Midfoot.Superior			R.Midfoot.Lateral			R.Toe			L.Heel			L.Midfoot.Lateral			L.Midfoot.Superior			L.Toe			L.Elbow			L.Wrist			R.Elbow			R.Wrist			
		X1	Y1	Z1	X2	Y2	Z2	X3	Y3	Z3	X4	Y4	Z4	X5	Y5	Z5	X6	Y6	Z6	X7	Y7	Z7	X8	Y8	Z8	X9	Y9	Z9	X10	Y10	Z10	X11	Y11	Z11	X12	Y12	Z12	X13	Y13	Z13	X14	Y14	Z14	X15	Y15	Z15	X16	Y16	Z16	X17	Y17	Z17	X18	Y18	Z18	X19	Y19	Z19	X20	Y20	Z20	X21	Y21	Z21	X22	Y22	Z22	X23	Y23	Z23	X24	Y24	Z24	X25	Y25	Z25	X26	Y26	Z26	X27	Y27	Z27	X28	Y28	Z28	X29	Y29	Z29	X30	Y30	Z30	X31	Y31	Z31	X32	Y32	Z32	X33	Y33	Z33	

18	2.641857142857	749.485995168689	1010.533954020514	509.247588440359	950.580518869188	1428.376297664508	330.124677039599	1057.294699066043	1341.620347809007	480.252848422873	998.045837829582	1419.055402553727	662.110508754290	965.727358999770	1483.783967928102	487.979590915601	976.757991925774	933.874319368626	613.765361859465	950.739318292472	951.927715972137	337.931884490078	969.672037991300	722.558682281024	589.227998022308	861.754510112863	632.366327769911	649.440704606102	923.071029758775	564.828513379590	571.733181306905	904.040432492285	482.157633130653	576.309970517892	1026.593023540637	785.166901463783	370.492466047319	994.527672238287	653.291660205309	286.541748236742	1100.065028256343	601.122523224514	351.507464351994	1133.509448544536	537.447562160652	345.804292990221	1119.640089635346	463.153739632182	337.429317497593	1059.834889574328	330.885748067430	283.579989005744	1148.459890707205	234.878300385514	341.438264511803	867.164133437942	398.996237430226	581.829097182378	784.010954983448	302.531012456413	641.114225857523	818.532539489423	204.406895270906	577.496423227354	675.264696364295	43.648435151933	537.775820694924	845.336057789592	96.665242857267	583.080553072617	754.412949474680	36.493944728082	615.825067554048	963.050460653994	41.473267011802	616.533465258562	1071.513754971777	51.077055444987	377.683889807652	1150.315251582611	56.200186222544	302.448840676130	1214.672707459778	139.877057415548	323.883918187896	1350.979278748159	118.660721064160	307.435444738084	783.750331894122	1120.008871462196	229.140838721214	710.868596307404	870.737823867244	231.573342816243	1115.457631398597	1096.430433087637	758.058250954659	1357.179791106122	1139.087657982386	689.252021310527	
19	2.653142857143	750.442870003091	1009.191645063759	508.297083762940	950.254107687703	1427.226381019409	328.836111100061	1057.355792898048	1340.731279570769	478.817803059415	998.154874627184	1418.304133537668	660.534028864563	965.313919334004	1482.629751186188	486.638007317515	977.754438220280	932.540949193733	612.804359156970	951.639285349157	950.234014279280	336.882241877408	968.658192218444	720.837991293973	588.851967559370	859.350019258923	631.710367679472	648.811807315856	919.798947602280	563.523857097887	571.199432010384	899.774863990245	480.816037951020	575.682718526123	1026.125751784022	781.775260385089	369.161422986029	991.593490047963	649.531253882365	286.182517434589	1097.291566935887	597.048430754724	350.695152179151	1130.310890338135	534.550445480196	345.792385593782	1117.878223684781	460.898176997013	337.338310739607	1060.630644813152	326.809248703017	285.292711821809	1152.633446085433	233.395821168813	342.464774245543	861.880372585237	398.046442054089	581.299162708126	777.840135530865	302.581930962254	640.868889060397	810.994735689538	203.992201128146	577.287377261112	666.232890182413	43.961467953168	537.921216625619	836.275181990799	96.511060469777	582.909712932963	745.384575061036	36.563551108468	615.856515980079	954.005473565621	41.125627915980	616.649267227541	1080.894744513925	48.049327586115	380.791323098239	1158.803495795092	54.170015166460	304.725665086480	1221.637461674968	139.298458011707	324.838357111616	1358.236156566523	120.716010448525	307.236413135909	781.643974831854	1120.235088332365	228.159152530624	707.689010624331	871.265348877572	230.765630435499	1119.399014411742	1097.626534299572	755.188043236269	1357.229277489232	1153.163279313123	684.395768667935	
20	2.664428571429	751.587411323908	1007.660404350196	507.007678134742	949.953402304650	1425.943023475363	327.372692233771	1057.408989925323	1339.856637269841	477.316151661501	998.031630292173	1417.537107059874	658.865640054459	964.783837343345	1481.393922100374	485.126165421036	978.917512900507	931.085582006224	611.744152462205	952.930160194844	948.417174299721	335.779050822191	968.023022861343	719.039295892363	588.260962191008	857.437503496077	630.920559478048	648.026996221458	917.053289777726	562.113095865090	570.486747234045	895.994729216814	479.313420490554	574.859017930830	1026.226707679815	778.322916123356	367.773420391775	989.121532174474	645.701885037256	286.011689637342	1095.022867655430	592.988718273706	349.952041168704	1127.439588728973	531.265554016177	345.779862969195	1115.948823017974	458.076983433335	337.317472665755	1060.097472517670	322.694899998006	287.434085020893	1154.764785536752	231.297331908126	343.798780666264	857.024978369494	396.937941336281	580.624634252564	772.022082584791	302.594633441286	640.528046200879	803.652909770222	203.510082938625	577.005292311520	657.215200968843	44.354240003442	538.090753676024	827.246785610216	96.382963812014	582.750422741061	736.382064695754	36.668960921490	615.909706872485	944.980153624110	40.744950315681	616.785810413729	1086.858955635440	45.346529870614	384.493318633362	1163.505617803654	52.020796617930	307.242985325483	1225.657121445555	137.796449374868	326.016118073812	1362.177220970418	120.590725368221	306.510435422267	779.950391985570	1120.074532763550	227.043488241069	705.537438296372	871.208578470164	229.758854592512	1122.939904009029	1098.703667328086	752.281516723455	1356.448769857200	1165.957110624113	679.758631440924	
21	2.675714285714	752.907575026390	1005.953011759516	505.388858835543	949.686434701260	1424.530928026871	325.727459594206	1057.461671134124	1338.996729579523	475.738640767119	997.681969916755	1416.745006443055	657.097774259478	964.159077564215	1480.084408724616	483.438644069725	980.231594831081	929.519120370847	610.576724156354	954.589321946750	946.506314911171	334.612408387365	967.768971089067	717.175161647486	587.441385435036	856.036468448509	629.990597060138	647.086653923636	914.860729912765	560.587662123650	569.599946110190	892.730571957070	477.628995998379	573.844885508758	1026.919718062003	774.902773748576	366.367186834241	987.203546451844	641.910080307524	286.042405988910	1093.339307890871	589.057893717100	349.309157928601	1124.973671276771	527.682924323024	345.824500361870	1113.988393380325	454.776665118181	337.410187515471	1058.490607142083	318.583503693560	289.846707835867	1155.064155793102	228.575930580353	345.400071801322	852.616675862172	395.663885428909	579.810123178253	766.563212754577	302.570620486236	640.096067765537	796.506134301437	202.968603638002	576.657063811913	648.207305609767	44.850932273462	538.295068350947	818.263004847301	96.294801560683	582.621156325734	727.403619550101	36.818936714738	615.993086051837	935.979531359667	40.339855099495	616.938122437556	1089.498119970947	42.949256633432	388.507026410580	1164.663389898377	49.730694057602	309.852369603692	1227.012441445690	135.298136765142	327.448047955084	1363.132147501063	118.105336806294	305.522716014869	778.735169315482	1119.478039181740	225.786144108641	704.417370373741	870.540624906279	228.550274443784	1126.027317328361	1099.615844654115	749.389031365400	1354.946599242222	1177.436230255612	675.358177587366	
22	2.687000000000	754.387449562633	1004.096435286867	503.464126738543	949.470228556676	1423.007659708447	323.895716358451	1057.526970755048	1338.156436801168	474.075719842244	997.125518220120	1415.927088611944	655.219190216126	963.474179614015	1478.721674718636	481.570436111187	981.675509313283	927.864304017447	609.298771299626	956.578985212855	944.545540186632	333.371964712663	967.885049436237	715.268245031437	586.403175850431	855.144732254254	628.925490609195	645.994396451321	913.238382537896	558.950272621471	568.556487103583	890.014347313415	475.746480251169	572.664593385064	1028.200888264619	771.606696291438	364.972780335459	985.909342503525	638.272323859962	286.246504514165	1092.298019492755	585.364276194955	348.776139911864	1122.972384547017	523.918416455824	345.969149774456	1112.136554854018	451.132331204088	337.629882186218	1056.133339759200	314.557834676570	292.328325801046	1153.836479766617	225.312565588539	347.190506291527	848.670786526624	394.228788442328	578.871175853260	761.458667731206	302.524209504462	639.580937505121	789.551450537993	202.387638397696	576.257746379409	639.205656846906	45.487979060453	538.544272331265	809.339639352869	96.257758062052	582.538039655957	718.447220162100	37.026768020667	616.114241472846	927.008080052830	39.923072118723	617.098610791817	1089.079769806658	40.878578271766	392.526721527086	1162.708162402676	47.343058446030	312.397771256928	1226.105723478502	131.852726541091	329.132619436312	1361.560020092336	113.302587756927	304.550096623823	778.070386611053	1118.412124731314	224.378631231276	704.338794564234	869.252744460673	227.138707785621	1128.600181241201	1100.312466707798	746.560402211299	1352.816909667376	1187.584484572868	671.212161338881	
